<svg xmlns="http://www.w3.org/2000/svg" viewBox="0 0 30.68 47.77">
  <defs>
    <style>
      .cls-1 {
        fill: #ffd105;
      }
    </style>
  </defs>
  <g id="Layer_2" data-name="Layer 2">
    <g id="Layer_6" data-name="Layer 6">
      <g>
        <ellipse class="cls-1" cx="18.91" cy="29.35" rx="2.77" ry="2.8"/>
        <path class="cls-1" d="M25.68,21.49c-.27-.21-.54-.38-.8-.55l-2.24,4.27A5.66,5.66,0,0,1,23,33.13a5.48,5.48,0,0,1-7.82.36,5.68,5.68,0,0,1-.35-7.93,5.52,5.52,0,0,1,5.38-1.67l2.34-4.47-4.41-2.37a5.49,5.49,0,0,1-7.82.35A5.68,5.68,0,0,1,10,9.47a5.49,5.49,0,0,1,7.82-.35,5.66,5.66,0,0,1,1.66,5.41l4.4,2.41.5-1a16.58,16.58,0,0,0,0-7.89C23.2,3,20.94.87,15.83.2A26.28,26.28,0,0,0,10.89.05C4.67.45.85,3.61.25,8.92A35.79,35.79,0,0,0,.07,15.3c.66,9.43,1.41,18.85,2.17,28.28a39.2,39.2,0,0,0,.84,4.19c6.24-.83,12.38-1.33,18.37-2.55,4.7-1,8.15-4,8.89-8.94C31.18,30.69,30.72,25.33,25.68,21.49Zm-7-2.35.81,2.68-2.65.83L16.07,20Zm-7.94,2.47,2.65-.83.81,2.69-2.65.82Z"/>
        <ellipse class="cls-1" cx="14.05" cy="13.26" rx="2.77" ry="2.8"/>
      </g>
    </g>
  </g>
</svg>
