<svg xmlns="http://www.w3.org/2000/svg" viewBox="0 0 48.77 60.12">
  <defs>
    <style>
      .cls-1 {
        fill: #ffd105;
      }
    </style>
  </defs>
  <g id="Layer_2" data-name="Layer 2">
    <g id="Layer_6" data-name="Layer 6">
      <g>
        <g>
          <ellipse class="cls-1" cx="30.18" cy="29.35" rx="2.77" ry="2.8"/>
          <path class="cls-1" d="M37,21.49a9.53,9.53,0,0,0-.8-.55l-2.23,4.27a5.66,5.66,0,0,1,.34,7.92,5.48,5.48,0,0,1-7.82.36,5.67,5.67,0,0,1-.34-7.93,5.51,5.51,0,0,1,5.37-1.67l2.35-4.47L29.4,17.05a5.49,5.49,0,0,1-7.82.35,5.67,5.67,0,0,1-.34-7.93,5.49,5.49,0,0,1,7.82-.35,5.63,5.63,0,0,1,1.55,2.5,5.55,5.55,0,0,1,.1,2.91l4.41,2.41.5-1a16.58,16.58,0,0,0,0-7.89C34.47,3,32.21.87,27.11.2A26.42,26.42,0,0,0,22.16.05c-6.22.4-10,3.56-10.63,8.87a35.8,35.8,0,0,0-.19,6.38c.66,9.43,1.41,18.85,2.17,28.28a42.45,42.45,0,0,0,.85,4.19c6.23-.83,12.37-1.33,18.36-2.55,4.71-1,8.15-4,8.9-8.94C42.46,30.69,42,25.33,37,21.49Zm-7-2.35.81,2.68-2.64.83L27.35,20Zm-7.94,2.47,2.65-.83.81,2.69-2.65.82Z"/>
          <ellipse class="cls-1" cx="25.32" cy="13.26" rx="2.77" ry="2.8"/>
        </g>
        <g>
          <path class="cls-1" d="M2.68,57.39a3.47,3.47,0,0,1-1.51-.34A3.26,3.26,0,0,1,0,56.13l1-.84a2.84,2.84,0,0,0,.84.64,2.21,2.21,0,0,0,.91.22,1.73,1.73,0,0,0,.93-.22A.72.72,0,0,0,4,55.3a.8.8,0,0,0-.15-.47,1.48,1.48,0,0,0-.51-.4,7.33,7.33,0,0,0-1-.43A4.72,4.72,0,0,1,.64,53a1.82,1.82,0,0,1-.51-1.32A1.71,1.71,0,0,1,.82,50.3a2.8,2.8,0,0,1,1.78-.54,3.22,3.22,0,0,1,1.4.29,3,3,0,0,1,1.09.84l-1,.79A2.06,2.06,0,0,0,2.59,51a1.45,1.45,0,0,0-.82.2.61.61,0,0,0-.3.53.73.73,0,0,0,.35.59,5.45,5.45,0,0,0,1.26.58,5.66,5.66,0,0,1,1.28.62,2.28,2.28,0,0,1,.73.76,2.14,2.14,0,0,1,.22,1,1.87,1.87,0,0,1-.7,1.55A3,3,0,0,1,2.68,57.39Z"/>
          <path class="cls-1" d="M7.2,57.22V49.93H8.6v.73A2.1,2.1,0,0,1,9.41,50a2.44,2.44,0,0,1,1.07-.22,2.31,2.31,0,0,1,1.91.78A3.7,3.7,0,0,1,13,52.91v4.31H11.63V53a2.18,2.18,0,0,0-.37-1.39,1.28,1.28,0,0,0-1.08-.47A1.47,1.47,0,0,0,9,51.54a2,2,0,0,0-.4,1.38v4.3Z"/>
          <path class="cls-1" d="M15.27,57.22V49.93h1.4v7.29Z"/>
          <path class="cls-1" d="M19,60.12V49.93h1.4v.58a2.32,2.32,0,0,1,1.76-.75,2.68,2.68,0,0,1,1.58.46,3,3,0,0,1,1,1.32,5.22,5.22,0,0,1,.36,2,5,5,0,0,1-.37,2,3,3,0,0,1-1,1.33,2.67,2.67,0,0,1-1.57.47,2.38,2.38,0,0,1-1-.2,2.13,2.13,0,0,1-.77-.61v2.88Zm3-4.07a1.49,1.49,0,0,0,1.3-.65,3.17,3.17,0,0,0,.45-1.83,3.12,3.12,0,0,0-.47-1.82,1.5,1.5,0,0,0-1.28-.66,1.83,1.83,0,0,0-.91.22,1.76,1.76,0,0,0-.65.65v3.22a2.29,2.29,0,0,0,.71.65A1.68,1.68,0,0,0,21.93,56.05Z"/>
          <path class="cls-1" d="M30.12,57.39a2.12,2.12,0,0,1-.93-.19,2.61,2.61,0,0,1-.8-.59v.61H27V47.58l1.4-.66v3.62a2.17,2.17,0,0,1,.76-.58,2.39,2.39,0,0,1,1-.2,2.63,2.63,0,0,1,1.58.47,3.09,3.09,0,0,1,1,1.32,5.24,5.24,0,0,1,.37,2,4.52,4.52,0,0,1-.79,2.82A2.61,2.61,0,0,1,30.12,57.39Zm-.18-1.34a1.47,1.47,0,0,0,1.28-.64,4,4,0,0,0,0-3.69,1.46,1.46,0,0,0-1.28-.63,1.78,1.78,0,0,0-.89.24,1.72,1.72,0,0,0-.66.62v3.23a1.9,1.9,0,0,0,.65.64A1.83,1.83,0,0,0,29.94,56.05Z"/>
          <path class="cls-1" d="M35,57.22V49.93h1.4v7.29Z"/>
          <path class="cls-1" d="M40.7,57.39a1.47,1.47,0,0,1-1.17-.46,2,2,0,0,1-.41-1.34V51.17H38V49.93h1.13V47.6l1.4-.68v3h1.73v1.24H40.52v4a1.12,1.12,0,0,0,.17.67.61.61,0,0,0,.51.21,2.13,2.13,0,0,0,1.1-.36l-.16,1.32a2.42,2.42,0,0,1-.68.25A3.55,3.55,0,0,1,40.7,57.39Z"/>
          <path class="cls-1" d="M46.14,57.39a3.44,3.44,0,0,1-1.51-.34,3.26,3.26,0,0,1-1.17-.92l1-.84a2.84,2.84,0,0,0,.84.64,2.2,2.2,0,0,0,.9.22,1.74,1.74,0,0,0,.94-.22.72.72,0,0,0,.33-.63.8.8,0,0,0-.15-.47,1.48,1.48,0,0,0-.51-.4,7.33,7.33,0,0,0-1-.43,4.72,4.72,0,0,1-1.71-1,1.79,1.79,0,0,1-.52-1.32,1.71,1.71,0,0,1,.69-1.41,2.83,2.83,0,0,1,1.79-.54,3.18,3.18,0,0,1,1.39.29,3,3,0,0,1,1.1.84l-.95.79A2.08,2.08,0,0,0,46.05,51a1.4,1.4,0,0,0-.82.2.61.61,0,0,0-.3.53.71.71,0,0,0,.34.59,5.45,5.45,0,0,0,1.26.58,5.55,5.55,0,0,1,1.29.62,2,2,0,0,1,1,1.76,1.87,1.87,0,0,1-.7,1.55A3,3,0,0,1,46.14,57.39Z"/>
        </g>
      </g>
    </g>
  </g>
</svg>
